<?xml version="1.0" encoding="UTF-8" standalone="no"?>
<!DOCTYPE svg PUBLIC "-//W3C//DTD SVG 1.1//EN" "http://www.w3.org/Graphics/SVG/1.1/DTD/svg11.dtd">
<svg xmlns="http://www.w3.org/2000/svg" version="1.1" viewBox="0.00 0.00 637.00 637.00">
<g stroke-width="2.00" fill="none" stroke-linecap="butt">
<path stroke="#b3c2fd" vector-effect="non-scaling-stroke" d="
  M 252.01 118.31
  L 237.82 122.71"
/>
<path stroke="#a1a9e2" vector-effect="non-scaling-stroke" d="
  M 237.82 122.71
  C 183.40 133.98 148.81 183.25 137.14 234.40
  Q 137.03 234.90 137.53 234.78
  L 139.98 234.18"
/>
<path stroke="#8a8cb3" vector-effect="non-scaling-stroke" d="
  M 139.98 234.18
  Q 185.23 225.35 231.14 221.53
  C 231.73 221.48 232.03 221.24 232.29 220.75"
/>
<path stroke="#99b6ed" vector-effect="non-scaling-stroke" d="
  M 232.29 220.75
  Q 232.82 220.55 232.67 220.73"
/>
<path stroke="#8a8cb3" vector-effect="non-scaling-stroke" d="
  M 232.67 220.73
  Q 249.94 212.71 267.55 206.89
  Q 268.05 206.73 268.24 207.21
  L 292.47 269.95"
/>
<path stroke="#a1c2fb" vector-effect="non-scaling-stroke" d="
  M 292.47 269.95
  Q 287.93 278.79 287.25 287.00
  Q 285.03 313.92 280.64 383.79"
/>
<path stroke="#f9dad2" vector-effect="non-scaling-stroke" d="
  M 280.64 383.79
  Q 275.42 386.69 271.25 391.54"
/>
<path stroke="#8a8cb3" vector-effect="non-scaling-stroke" d="
  M 271.25 391.54
  C 267.80 391.44 261.04 390.59 260.53 393.92
  C 259.76 398.86 271.47 397.23 275.92 397.29"
/>
<path stroke="#f9dad2" vector-effect="non-scaling-stroke" d="
  M 275.92 397.29
  L 289.26 397.31"
/>
<path stroke="#8a8cb3" vector-effect="non-scaling-stroke" d="
  M 289.26 397.31
  L 291.09 397.28
  Q 291.72 397.27 291.72 397.90
  L 291.73 507.60"
/>
<path stroke="#dbe8fe" vector-effect="non-scaling-stroke" d="
  M 291.73 507.60
  Q 220.47 507.89 149.25 507.70
  Q 137.17 507.66 118.58 510.24
  C 116.50 510.53 114.43 511.26 112.40 511.87
  A 0.97 0.97 0.0 0 0 112.33 513.70
  Q 116.71 515.40 121.75 516.05
  C 145.11 519.06 168.37 517.92 191.81 517.98
  Q 302.35 518.29 455.25 518.21
  Q 480.54 518.20 504.46 515.16
  Q 505.71 515.00 504.45 514.96
  Q 460.39 513.85 445.56 513.86
  Q 439.39 513.87 436.77 513.73
  A 0.21 0.20 -45.2 0 1 436.77 513.32
  Q 442.51 512.90 448.25 512.81
  Q 478.47 512.36 507.51 511.96
  Q 511.47 511.91 507.56 511.23
  C 492.58 508.62 477.97 507.82 461.51 507.75
  Q 431.63 507.62 402.39 507.70"
/>
<path stroke="#a1c2fb" vector-effect="non-scaling-stroke" d="
  M 402.39 507.70
  Q 388.94 496.84 370.25 497.71"
/>
<path stroke="#f9dad2" vector-effect="non-scaling-stroke" d="
  M 370.25 497.71
  L 370.88 492.99"
/>
<path stroke="#8a8cb3" vector-effect="non-scaling-stroke" d="
  M 370.88 492.99
  L 373.42 492.79
  Q 373.97 492.75 374.02 492.19
  Q 377.54 450.43 381.11 408.68
  C 381.92 399.15 383.75 391.15 379.30 382.09
  Q 379.02 381.52 379.41 382.02
  L 445.84 467.24
  Q 446.27 467.80 446.78 467.32
  L 449.00 465.21"
/>
<path stroke="#f9dad2" vector-effect="non-scaling-stroke" d="
  M 449.00 465.21
  L 454.19 468.89"
/>
<path stroke="#a1c2fb" vector-effect="non-scaling-stroke" d="
  M 454.19 468.89
  C 452.93 473.11 453.78 479.85 458.63 481.33
  Q 460.99 482.06 462.93 480.43
  Q 471.28 473.39 493.24 453.24
  C 498.52 448.40 492.03 444.87 487.70 445.64
  Q 474.20 448.04 463.04 458.25"
/>
<path stroke="#f9dad2" vector-effect="non-scaling-stroke" d="
  M 463.04 458.25
  Q 461.94 456.47 460.13 455.24"
/>
<path stroke="#8a8cb3" vector-effect="non-scaling-stroke" d="
  M 460.13 455.24
  L 462.24 453.58
  Q 462.68 453.23 462.39 452.74
  Q 419.87 382.86 408.03 363.74
  C 400.10 350.94 388.56 352.45 375.10 352.73"
/>
<path stroke="#99b6ed" vector-effect="non-scaling-stroke" d="
  M 375.10 352.73
  L 366.62 288.42"
/>
<path stroke="#a1c2fb" vector-effect="non-scaling-stroke" d="
  M 366.62 288.42
  Q 366.69 282.77 365.68 278.06
  C 363.28 266.80 355.39 259.76 344.00 258.21"
/>
<path stroke="#f9dad2" vector-effect="non-scaling-stroke" d="
  M 344.00 258.21
  L 345.03 252.21
  A 0.63 0.63 0.0 0 1 345.75 251.70
  C 352.69 252.89 359.81 255.67 360.95 245.50
  Q 361.60 239.68 361.60 237.88
  Q 361.60 237.33 362.10 237.08
  L 363.35 236.44
  A 1.43 1.40 -2.6 0 0 364.03 235.71
  Q 365.39 232.35 362.36 230.35
  A 1.11 1.08 -75.4 0 1 361.87 229.49
  Q 361.56 223.54 359.23 218.72"
/>
<path stroke="#8a8cb3" vector-effect="non-scaling-stroke" d="
  M 359.23 218.72
  Q 364.23 216.64 366.77 210.79
  Q 367.03 210.20 367.63 210.44
  L 372.09 212.19
  A 0.48 0.48 0.0 0 0 372.67 211.48
  C 368.08 204.35 363.77 206.90 356.68 206.66
  Q 355.96 206.64 356.49 206.15
  Q 357.59 205.13 357.82 203.55
  Q 357.92 202.90 357.30 203.13
  Q 351.53 205.27 349.50 204.82
  C 339.04 202.52 327.79 203.16 321.70 212.95
  C 318.98 217.32 318.07 222.55 319.95 227.30
  Q 322.50 233.78 328.73 245.68"
/>
<path stroke="#f9dad2" vector-effect="non-scaling-stroke" d="
  M 328.73 245.68
  Q 327.85 250.10 325.59 254.65"
/>
<path stroke="#a1c2fb" vector-effect="non-scaling-stroke" d="
  M 325.59 254.65
  Q 309.28 252.78 297.31 263.79"
/>
<path stroke="#8a8cb3" vector-effect="non-scaling-stroke" d="
  M 297.31 263.79
  L 274.71 205.01
  Q 274.52 204.51 275.04 204.35
  Q 302.58 195.71 331.72 191.87"
/>
<path stroke="#99b6ed" vector-effect="non-scaling-stroke" d="
  M 331.72 191.87
  Q 331.27 191.55 332.38 191.51"
/>
<path stroke="#8a8cb3" vector-effect="non-scaling-stroke" d="
  M 332.38 191.51
  Q 368.85 170.92 408.96 156.11"
/>
<path stroke="#a1a9e2" vector-effect="non-scaling-stroke" d="
  M 408.96 156.11
  Q 409.68 156.11 410.52 155.61
  Q 410.88 155.39 410.55 155.12
  C 364.31 116.62 311.82 99.14 252.01 118.31"
/>
<path stroke="#2d3795" vector-effect="non-scaling-stroke" d="
  M 408.96 156.11
  Q 397.54 156.03 384.82 157.87
  Q 352.01 162.61 321.18 172.66"
/>
<path stroke="#3c61cf" vector-effect="non-scaling-stroke" d="
  M 321.18 172.66
  Q 320.53 172.33 320.30 173.12"
/>
<path stroke="#2d3795" vector-effect="non-scaling-stroke" d="
  M 320.30 173.12
  L 318.75 173.71"
/>
<path stroke="#566de0" vector-effect="non-scaling-stroke" d="
  M 318.75 173.71
  Q 318.75 173.57 318.75 173.44
  Q 318.74 173.27 318.64 173.12
  C 304.89 154.64 290.24 137.45 272.43 126.33
  Q 263.89 120.99 252.01 118.31"
/>
<path stroke="#2444a0" vector-effect="non-scaling-stroke" d="
  M 331.72 191.87
  Q 326.50 181.92 320.30 173.12"
/>
<path stroke="#2c4faf" vector-effect="non-scaling-stroke" d="
  M 297.31 263.79
  L 292.47 269.95"
/>
<path stroke="#2444a0" vector-effect="non-scaling-stroke" d="
  M 232.67 220.73
  L 231.84 198.22"
/>
<path stroke="#3f4fb1" vector-effect="non-scaling-stroke" d="
  M 318.75 173.71
  Q 273.22 179.73 232.56 197.31
  Q 231.96 197.57 231.84 198.22"
/>
<path stroke="#4e7aeb" vector-effect="non-scaling-stroke" d="
  M 231.84 198.22
  Q 231.02 198.38 230.97 198.13"
/>
<path stroke="#3f4fb1" vector-effect="non-scaling-stroke" d="
  M 230.97 198.13
  Q 225.85 200.11 221.00 203.15"
/>
<path stroke="#566de0" vector-effect="non-scaling-stroke" d="
  M 221.00 203.15
  C 219.23 181.57 219.51 151.56 231.00 131.55
  Q 232.26 129.35 237.82 122.71"
/>
<path stroke="#2444a0" vector-effect="non-scaling-stroke" d="
  M 332.38 191.51
  L 321.18 172.66"
/>
<path stroke="#3b7ae9" vector-effect="non-scaling-stroke" d="
  M 366.62 288.42
  Q 364.73 306.81 360.69 323.98
  Q 357.95 335.61 351.28 345.23"
/>
<path stroke="#a1c2fb" vector-effect="non-scaling-stroke" d="
  M 351.28 345.23
  L 344.90 351.52"
/>
<path stroke="#3b7ae9" vector-effect="non-scaling-stroke" d="
  M 344.90 351.52
  Q 341.01 343.94 340.13 335.67
  Q 338.18 317.39 338.55 299.00
  Q 338.57 297.99 338.46 297.48
  A 0.33 0.24 -60.5 0 0 337.93 297.72
  Q 338.31 306.51 333.24 313.06
  C 327.44 320.57 318.21 319.61 312.12 312.69
  A 0.46 0.45 31.6 0 0 311.34 312.87
  L 298.64 363.08"
/>
<path stroke="#2c4faf" vector-effect="non-scaling-stroke" d="
  M 298.64 363.08
  L 292.89 386.33"
/>
<path stroke="#9b9ece" vector-effect="non-scaling-stroke" d="
  M 292.89 386.33
  L 280.64 383.79"
/>
<path stroke="#2d3795" vector-effect="non-scaling-stroke" d="
  M 221.00 203.15
  Q 215.23 204.36 209.28 205.66
  Q 174.19 213.35 143.14 231.34
  Q 141.18 232.48 139.98 234.18"
/>
<path stroke="#2444a0" vector-effect="non-scaling-stroke" d="
  M 230.97 198.13
  Q 231.62 208.98 231.94 219.44
  Q 231.53 220.20 232.29 220.75"
/>
<path stroke="#8a8cb3" vector-effect="non-scaling-stroke" d="
  M 353.78 353.74
  L 341.60 354.05"
/>
<path stroke="#846885" vector-effect="non-scaling-stroke" d="
  M 275.92 397.29
  Q 271.94 395.55 271.25 391.54"
/>
<path stroke="#2444a0" vector-effect="non-scaling-stroke" d="
  M 375.10 352.73
  L 353.78 353.74"
/>
<path stroke="#99b6ed" vector-effect="non-scaling-stroke" d="
  M 353.78 353.74
  L 351.28 345.23"
/>
<path stroke="#99b6ed" vector-effect="non-scaling-stroke" d="
  M 344.90 351.52
  L 341.60 354.05"
/>
<path stroke="#2444a0" vector-effect="non-scaling-stroke" d="
  M 341.60 354.05
  Q 327.65 354.59 313.42 355.44
  C 307.08 355.83 302.30 358.29 298.64 363.08"
/>
<path stroke="#846885" vector-effect="non-scaling-stroke" d="
  M 460.13 455.24
  L 449.00 465.21"
/>
<path stroke="#846885" vector-effect="non-scaling-stroke" d="
  M 370.88 492.99
  L 354.31 495.33"
/>
<path stroke="#8a8cb3" vector-effect="non-scaling-stroke" d="
  M 354.31 495.33
  C 353.01 495.80 352.01 495.99 351.97 494.24
  Q 350.94 446.79 350.16 398.14
  A 1.09 1.09 0.0 0 0 349.06 397.07
  L 298.21 397.32
  Q 297.76 397.33 297.76 397.77
  L 297.76 507.84"
/>
<path stroke="#6775b2" vector-effect="non-scaling-stroke" d="
  M 297.76 507.84
  L 297.71 511.33
  Q 297.70 512.00 297.03 512.00
  L 292.29 512.00
  Q 291.81 512.00 291.80 511.52
  L 291.73 507.60"
/>
<path stroke="#846885" vector-effect="non-scaling-stroke" d="
  M 289.26 397.31
  Q 292.18 395.05 292.86 392.04
  Q 292.97 391.58 293.44 391.60
  L 298.16 391.81
  A 0.47 0.46 65.8 0 0 298.47 390.98
  L 292.89 386.33"
/>
<path stroke="#9b9ece" vector-effect="non-scaling-stroke" d="
  M 344.00 258.21
  C 342.73 260.96 341.30 264.90 339.11 266.57
  C 333.31 270.97 327.54 258.36 325.59 254.65"
/>
<path stroke="#9b9ece" vector-effect="non-scaling-stroke" d="
  M 370.25 497.71
  Q 362.13 498.44 354.93 502.40"
/>
<path stroke="#f9dad2" vector-effect="non-scaling-stroke" d="
  M 354.31 495.33
  L 354.93 502.40"
/>
<path stroke="#a1c2fb" vector-effect="non-scaling-stroke" d="
  M 354.93 502.40
  L 351.77 507.49"
/>
<path stroke="#dbe8fe" vector-effect="non-scaling-stroke" d="
  M 351.77 507.49
  L 297.76 507.84"
/>
<path stroke="#846885" vector-effect="non-scaling-stroke" d="
  M 359.23 218.72
  Q 354.19 219.29 350.75 215.46
  Q 350.46 215.13 350.01 215.17
  L 340.86 215.94
  A 0.45 0.45 0.0 0 0 340.44 216.41
  L 340.80 224.87
  Q 340.83 225.45 340.37 225.81
  L 336.14 229.12
  A 0.47 0.46 68.6 0 1 335.39 228.79
  C 334.85 221.96 325.35 223.42 330.25 233.75
  C 331.90 237.23 330.10 242.27 328.73 245.68"
/>
<path stroke="#7eabfa" vector-effect="non-scaling-stroke" d="
  M 402.39 507.70
  Q 402.85 510.96 401.96 512.73
  Q 401.71 513.21 401.18 513.29
  Q 398.35 513.74 395.50 513.75
  Q 376.45 513.83 357.45 513.66
  Q 350.99 513.61 351.77 507.49"
/>
<path stroke="#9b9ece" vector-effect="non-scaling-stroke" d="
  M 454.19 468.89
  Q 458.23 463.13 463.04 458.25"
/>
</g>
<g fill="#fefeff">
<path d="
  M 0.00 0.00
  L 637.00 0.00
  L 637.00 637.00
  L 0.00 637.00
  L 0.00 0.00
  Z
  M 252.01 118.31
  L 237.82 122.71
  C 183.40 133.98 148.81 183.25 137.14 234.40
  Q 137.03 234.90 137.53 234.78
  L 139.98 234.18
  Q 185.23 225.35 231.14 221.53
  C 231.73 221.48 232.03 221.24 232.29 220.75
  Q 232.82 220.55 232.67 220.73
  Q 249.94 212.71 267.55 206.89
  Q 268.05 206.73 268.24 207.21
  L 292.47 269.95
  Q 287.93 278.79 287.25 287.00
  Q 285.03 313.92 280.64 383.79
  Q 275.42 386.69 271.25 391.54
  C 267.80 391.44 261.04 390.59 260.53 393.92
  C 259.76 398.86 271.47 397.23 275.92 397.29
  L 289.26 397.31
  L 291.09 397.28
  Q 291.72 397.27 291.72 397.90
  L 291.73 507.60
  Q 220.47 507.89 149.25 507.70
  Q 137.17 507.66 118.58 510.24
  C 116.50 510.53 114.43 511.26 112.40 511.87
  A 0.97 0.97 0.0 0 0 112.33 513.70
  Q 116.71 515.40 121.75 516.05
  C 145.11 519.06 168.37 517.92 191.81 517.98
  Q 302.35 518.29 455.25 518.21
  Q 480.54 518.20 504.46 515.16
  Q 505.71 515.00 504.45 514.96
  Q 460.39 513.85 445.56 513.86
  Q 439.39 513.87 436.77 513.73
  A 0.21 0.20 -45.2 0 1 436.77 513.32
  Q 442.51 512.90 448.25 512.81
  Q 478.47 512.36 507.51 511.96
  Q 511.47 511.91 507.56 511.23
  C 492.58 508.62 477.97 507.82 461.51 507.75
  Q 431.63 507.62 402.39 507.70
  Q 388.94 496.84 370.25 497.71
  L 370.88 492.99
  L 373.42 492.79
  Q 373.97 492.75 374.02 492.19
  Q 377.54 450.43 381.11 408.68
  C 381.92 399.15 383.75 391.15 379.30 382.09
  Q 379.02 381.52 379.41 382.02
  L 445.84 467.24
  Q 446.27 467.80 446.78 467.32
  L 449.00 465.21
  L 454.19 468.89
  C 452.93 473.11 453.78 479.85 458.63 481.33
  Q 460.99 482.06 462.93 480.43
  Q 471.28 473.39 493.24 453.24
  C 498.52 448.40 492.03 444.87 487.70 445.64
  Q 474.20 448.04 463.04 458.25
  Q 461.94 456.47 460.13 455.24
  L 462.24 453.58
  Q 462.68 453.23 462.39 452.74
  Q 419.87 382.86 408.03 363.74
  C 400.10 350.94 388.56 352.45 375.10 352.73
  L 366.62 288.42
  Q 366.69 282.77 365.68 278.06
  C 363.28 266.80 355.39 259.76 344.00 258.21
  L 345.03 252.21
  A 0.63 0.63 0.0 0 1 345.75 251.70
  C 352.69 252.89 359.81 255.67 360.95 245.50
  Q 361.60 239.68 361.60 237.88
  Q 361.60 237.33 362.10 237.08
  L 363.35 236.44
  A 1.43 1.40 -2.6 0 0 364.03 235.71
  Q 365.39 232.35 362.36 230.35
  A 1.11 1.08 -75.4 0 1 361.87 229.49
  Q 361.56 223.54 359.23 218.72
  Q 364.23 216.64 366.77 210.79
  Q 367.03 210.20 367.63 210.44
  L 372.09 212.19
  A 0.48 0.48 0.0 0 0 372.67 211.48
  C 368.08 204.35 363.77 206.90 356.68 206.66
  Q 355.96 206.64 356.49 206.15
  Q 357.59 205.13 357.82 203.55
  Q 357.92 202.90 357.30 203.13
  Q 351.53 205.27 349.50 204.82
  C 339.04 202.52 327.79 203.16 321.70 212.95
  C 318.98 217.32 318.07 222.55 319.95 227.30
  Q 322.50 233.78 328.73 245.68
  Q 327.85 250.10 325.59 254.65
  Q 309.28 252.78 297.31 263.79
  L 274.71 205.01
  Q 274.52 204.51 275.04 204.35
  Q 302.58 195.71 331.72 191.87
  Q 331.27 191.55 332.38 191.51
  Q 368.85 170.92 408.96 156.11
  Q 409.68 156.11 410.52 155.61
  Q 410.88 155.39 410.55 155.12
  C 364.31 116.62 311.82 99.14 252.01 118.31
  Z"
/>
<path d="
  M 351.28 345.23
  L 353.78 353.74
  L 341.60 354.05
  L 344.90 351.52
  L 351.28 345.23
  Z"
/>
<path d="
  M 354.31 495.33
  L 354.93 502.40
  L 351.77 507.49
  L 297.76 507.84
  L 297.76 397.77
  Q 297.76 397.33 298.21 397.32
  L 349.06 397.07
  A 1.09 1.09 0.0 0 1 350.16 398.14
  Q 350.94 446.79 351.97 494.24
  C 352.01 495.99 353.01 495.80 354.31 495.33
  Z"
/>
</g>
<g fill="#4385f7">
<path d="
  M 325.59 254.65
  C 327.54 258.36 333.31 270.97 339.11 266.57
  C 341.30 264.90 342.73 260.96 344.00 258.21
  C 355.39 259.76 363.28 266.80 365.68 278.06
  Q 366.69 282.77 366.62 288.42
  Q 364.73 306.81 360.69 323.98
  Q 357.95 335.61 351.28 345.23
  L 344.90 351.52
  Q 341.01 343.94 340.13 335.67
  Q 338.18 317.39 338.55 299.00
  Q 338.57 297.99 338.46 297.48
  A 0.33 0.24 -60.5 0 0 337.93 297.72
  Q 338.31 306.51 333.24 313.06
  C 327.44 320.57 318.21 319.61 312.12 312.69
  A 0.46 0.45 31.6 0 0 311.34 312.87
  L 298.64 363.08
  L 292.89 386.33
  L 280.64 383.79
  Q 285.03 313.92 287.25 287.00
  Q 287.93 278.79 292.47 269.95
  L 297.31 263.79
  Q 309.28 252.78 325.59 254.65
  Z"
/>
<path d="
  M 454.19 468.89
  Q 458.23 463.13 463.04 458.25
  Q 474.20 448.04 487.70 445.64
  C 492.03 444.87 498.52 448.40 493.24 453.24
  Q 471.28 473.39 462.93 480.43
  Q 460.99 482.06 458.63 481.33
  C 453.78 479.85 452.93 473.11 454.19 468.89
  Z"
/>
<path d="
  M 402.39 507.70
  Q 402.85 510.96 401.96 512.73
  Q 401.71 513.21 401.18 513.29
  Q 398.35 513.74 395.50 513.75
  Q 376.45 513.83 357.45 513.66
  Q 350.99 513.61 351.77 507.49
  L 354.93 502.40
  Q 362.13 498.44 370.25 497.71
  Q 388.94 496.84 402.39 507.70
  Z"
/>
</g>
<g fill="#151966">
<path d="
  M 408.96 156.11
  Q 368.85 170.92 332.38 191.51
  L 321.18 172.66
  Q 352.01 162.61 384.82 157.87
  Q 397.54 156.03 408.96 156.11
  Z"
/>
<path d="
  M 320.30 173.12
  Q 326.50 181.92 331.72 191.87
  Q 302.58 195.71 275.04 204.35
  Q 274.52 204.51 274.71 205.01
  L 297.31 263.79
  L 292.47 269.95
  L 268.24 207.21
  Q 268.05 206.73 267.55 206.89
  Q 249.94 212.71 232.67 220.73
  L 231.84 198.22
  Q 231.96 197.57 232.56 197.31
  Q 273.22 179.73 318.75 173.71
  L 320.30 173.12
  Z"
/>
<path d="
  M 230.97 198.13
  Q 231.62 208.98 231.94 219.44
  Q 231.53 220.20 232.29 220.75
  C 232.03 221.24 231.73 221.48 231.14 221.53
  Q 185.23 225.35 139.98 234.18
  Q 141.18 232.48 143.14 231.34
  Q 174.19 213.35 209.28 205.66
  Q 215.23 204.36 221.00 203.15
  Q 225.85 200.11 230.97 198.13
  Z"
/>
<path d="
  M 359.23 218.72
  Q 354.19 219.29 350.75 215.46
  Q 350.46 215.13 350.01 215.17
  L 340.86 215.94
  A 0.45 0.45 0.0 0 0 340.44 216.41
  L 340.80 224.87
  Q 340.83 225.45 340.37 225.81
  L 336.14 229.12
  A 0.47 0.46 68.6 0 1 335.39 228.79
  C 334.85 221.96 325.35 223.42 330.25 233.75
  C 331.90 237.23 330.10 242.27 328.73 245.68
  Q 322.50 233.78 319.95 227.30
  C 318.07 222.55 318.98 217.32 321.70 212.95
  C 327.79 203.16 339.04 202.52 349.50 204.82
  Q 351.53 205.27 357.30 203.13
  Q 357.92 202.90 357.82 203.55
  Q 357.59 205.13 356.49 206.15
  Q 355.96 206.64 356.68 206.66
  C 363.77 206.90 368.08 204.35 372.67 211.48
  A 0.48 0.48 0.0 0 1 372.09 212.19
  L 367.63 210.44
  Q 367.03 210.20 366.77 210.79
  Q 364.23 216.64 359.23 218.72
  Z"
/>
<path d="
  M 460.13 455.24
  L 449.00 465.21
  L 446.78 467.32
  Q 446.27 467.80 445.84 467.24
  L 379.41 382.02
  Q 379.02 381.52 379.30 382.09
  C 383.75 391.15 381.92 399.15 381.11 408.68
  Q 377.54 450.43 374.02 492.19
  Q 373.97 492.75 373.42 492.79
  L 370.88 492.99
  L 354.31 495.33
  C 353.01 495.80 352.01 495.99 351.97 494.24
  Q 350.94 446.79 350.16 398.14
  A 1.09 1.09 0.0 0 0 349.06 397.07
  L 298.21 397.32
  Q 297.76 397.33 297.76 397.77
  L 297.76 507.84
  L 297.71 511.33
  Q 297.70 512.00 297.03 512.00
  L 292.29 512.00
  Q 291.81 512.00 291.80 511.52
  L 291.73 507.60
  L 291.72 397.90
  Q 291.72 397.27 291.09 397.28
  L 289.26 397.31
  Q 292.18 395.05 292.86 392.04
  Q 292.97 391.58 293.44 391.60
  L 298.16 391.81
  A 0.47 0.46 65.8 0 0 298.47 390.98
  L 292.89 386.33
  L 298.64 363.08
  C 302.30 358.29 307.08 355.83 313.42 355.44
  Q 327.65 354.59 341.60 354.05
  L 353.78 353.74
  L 375.10 352.73
  C 388.56 352.45 400.10 350.94 408.03 363.74
  Q 419.87 382.86 462.39 452.74
  Q 462.68 453.23 462.24 453.58
  L 460.13 455.24
  Z"
/>
<path d="
  M 271.25 391.54
  Q 271.94 395.55 275.92 397.29
  C 271.47 397.23 259.76 398.86 260.53 393.92
  C 261.04 390.59 267.80 391.44 271.25 391.54
  Z"
/>
</g>
<g fill="#4454c4">
<path d="
  M 408.96 156.11
  Q 397.54 156.03 384.82 157.87
  Q 352.01 162.61 321.18 172.66
  Q 320.53 172.33 320.30 173.12
  L 318.75 173.71
  Q 318.75 173.57 318.75 173.44
  Q 318.74 173.27 318.64 173.12
  C 304.89 154.64 290.24 137.45 272.43 126.33
  Q 263.89 120.99 252.01 118.31
  C 311.82 99.14 364.31 116.62 410.55 155.12
  Q 410.88 155.39 410.52 155.61
  Q 409.68 156.11 408.96 156.11
  Z"
/>
<path d="
  M 237.82 122.71
  Q 232.26 129.35 231.00 131.55
  C 219.51 151.56 219.23 181.57 221.00 203.15
  Q 215.23 204.36 209.28 205.66
  Q 174.19 213.35 143.14 231.34
  Q 141.18 232.48 139.98 234.18
  L 137.53 234.78
  Q 137.03 234.90 137.14 234.40
  C 148.81 183.25 183.40 133.98 237.82 122.71
  Z"
/>
</g>
<path fill="#b8d1fd" d="
  M 291.73 507.60
  L 291.80 511.52
  Q 291.81 512.00 292.29 512.00
  L 297.03 512.00
  Q 297.70 512.00 297.71 511.33
  L 297.76 507.84
  L 351.77 507.49
  Q 350.99 513.61 357.45 513.66
  Q 376.45 513.83 395.50 513.75
  Q 398.35 513.74 401.18 513.29
  Q 401.71 513.21 401.96 512.73
  Q 402.85 510.96 402.39 507.70
  Q 431.63 507.62 461.51 507.75
  C 477.97 507.82 492.58 508.62 507.56 511.23
  Q 511.47 511.91 507.51 511.96
  Q 478.47 512.36 448.25 512.81
  Q 442.51 512.90 436.77 513.32
  A 0.21 0.20 -45.2 0 0 436.77 513.73
  Q 439.39 513.87 445.56 513.86
  Q 460.39 513.85 504.45 514.96
  Q 505.71 515.00 504.46 515.16
  Q 480.54 518.20 455.25 518.21
  Q 302.35 518.29 191.81 517.98
  C 168.37 517.92 145.11 519.06 121.75 516.05
  Q 116.71 515.40 112.33 513.70
  A 0.97 0.97 0.0 0 1 112.40 511.87
  C 114.43 511.26 116.50 510.53 118.58 510.24
  Q 137.17 507.66 149.25 507.70
  Q 220.47 507.89 291.73 507.60
  Z"
/>
<g fill="#f3b6a4">
<path d="
  M 359.23 218.72
  Q 361.56 223.54 361.87 229.49
  A 1.11 1.08 -75.4 0 0 362.36 230.35
  Q 365.39 232.35 364.03 235.71
  A 1.43 1.40 -2.6 0 1 363.35 236.44
  L 362.10 237.08
  Q 361.60 237.33 361.60 237.88
  Q 361.60 239.68 360.95 245.50
  C 359.81 255.67 352.69 252.89 345.75 251.70
  A 0.63 0.63 0.0 0 0 345.03 252.21
  L 344.00 258.21
  C 342.73 260.96 341.30 264.90 339.11 266.57
  C 333.31 270.97 327.54 258.36 325.59 254.65
  Q 327.85 250.10 328.73 245.68
  C 330.10 242.27 331.90 237.23 330.25 233.75
  C 325.35 223.42 334.85 221.96 335.39 228.79
  A 0.47 0.46 68.6 0 0 336.14 229.12
  L 340.37 225.81
  Q 340.83 225.45 340.80 224.87
  L 340.44 216.41
  A 0.45 0.45 0.0 0 1 340.86 215.94
  L 350.01 215.17
  Q 350.46 215.13 350.75 215.46
  Q 354.19 219.29 359.23 218.72
  Z"
/>
<path d="
  M 280.64 383.79
  L 292.89 386.33
  L 298.47 390.98
  A 0.47 0.46 65.8 0 1 298.16 391.81
  L 293.44 391.60
  Q 292.97 391.58 292.86 392.04
  Q 292.18 395.05 289.26 397.31
  L 275.92 397.29
  Q 271.94 395.55 271.25 391.54
  Q 275.42 386.69 280.64 383.79
  Z"
/>
<path d="
  M 460.13 455.24
  Q 461.94 456.47 463.04 458.25
  Q 458.23 463.13 454.19 468.89
  L 449.00 465.21
  L 460.13 455.24
  Z"
/>
<path d="
  M 370.88 492.99
  L 370.25 497.71
  Q 362.13 498.44 354.93 502.40
  L 354.31 495.33
  L 370.88 492.99
  Z"
/>
</g>
<g fill="#336eda">
<path d="
  M 321.18 172.66
  L 332.38 191.51
  Q 331.27 191.55 331.72 191.87
  Q 326.50 181.92 320.30 173.12
  Q 320.53 172.33 321.18 172.66
  Z"
/>
<path d="
  M 230.97 198.13
  Q 231.02 198.38 231.84 198.22
  L 232.67 220.73
  Q 232.82 220.55 232.29 220.75
  Q 231.53 220.20 231.94 219.44
  Q 231.62 208.98 230.97 198.13
  Z"
/>
<path d="
  M 366.62 288.42
  L 375.10 352.73
  L 353.78 353.74
  L 351.28 345.23
  Q 357.95 335.61 360.69 323.98
  Q 364.73 306.81 366.62 288.42
  Z"
/>
<path d="
  M 344.90 351.52
  L 341.60 354.05
  Q 327.65 354.59 313.42 355.44
  C 307.08 355.83 302.30 358.29 298.64 363.08
  L 311.34 312.87
  A 0.46 0.45 31.6 0 1 312.12 312.69
  C 318.21 319.61 327.44 320.57 333.24 313.06
  Q 338.31 306.51 337.93 297.72
  A 0.33 0.24 -60.5 0 1 338.46 297.48
  Q 338.57 297.99 338.55 299.00
  Q 338.18 317.39 340.13 335.67
  Q 341.01 343.94 344.90 351.52
  Z"
/>
</g>
<path fill="#6885fb" d="
  M 252.01 118.31
  Q 263.89 120.99 272.43 126.33
  C 290.24 137.45 304.89 154.64 318.64 173.12
  Q 318.74 173.27 318.75 173.44
  Q 318.75 173.57 318.75 173.71
  Q 273.22 179.73 232.56 197.31
  Q 231.96 197.57 231.84 198.22
  Q 231.02 198.38 230.97 198.13
  Q 225.85 200.11 221.00 203.15
  C 219.23 181.57 219.51 151.56 231.00 131.55
  Q 232.26 129.35 237.82 122.71
  L 252.01 118.31
  Z"
/>
</svg>
