<svg width="568" height="138" viewBox="0 0 568 138" fill="none" xmlns="http://www.w3.org/2000/svg">
<path d="M14.9276 5.83585C54.4797 5.8026 94.3228 5.82754 133.9 5.81922C139.987 5.65296 145.069 10.4913 145.044 16.6098C145.094 50.0707 145.035 83.7477 145.077 117.217C145.044 120.135 145.326 122.961 143.987 125.655C142.757 128.099 140.495 130.26 137.875 131.117C135.505 131.565 132.968 131.299 130.565 131.349C93.1419 131.349 55.7188 131.349 18.2957 131.349C15.385 131.208 11.9171 131.956 9.45548 130.252C6.02918 128.282 4.08318 124.466 4.16634 120.55C4.15803 87.3307 4.18298 53.9945 4.15803 20.7831C4.19961 17.782 3.85032 14.5648 5.29735 11.8131C7.16019 8.23007 10.836 5.8026 14.9276 5.83585Z" fill="black"/>
<path d="M64.9915 26.4777L65.4073 26.2034C77.3494 26.1618 89.2999 26.1868 101.242 26.1951C106.631 33.278 112.07 40.3276 117.475 47.4105C117.467 54.3271 117.467 61.2438 117.475 68.1604C109.974 58.4089 102.506 48.6326 95.0215 38.8645C86.8133 38.8562 78.6052 38.8894 70.3971 38.8479C63.0122 45.964 55.6357 53.0968 48.2841 60.2462C53.0161 66.4479 57.8062 72.5997 62.5715 78.7764C64.5424 78.7016 66.5134 78.6268 68.4843 78.5353C72.9751 74.52 77.4908 70.5213 81.9816 66.4977C84.7842 69.6069 87.5535 72.7493 90.3561 75.8501C84.7093 80.8298 79.179 86.0505 73.4075 90.8639C67.8689 91.4209 62.1058 91.1798 56.5172 91.4541C48.1344 80.7217 39.7517 69.981 31.3772 59.2236C42.6125 48.3499 53.723 37.3099 64.9915 26.4777Z" fill="white"/>
<path d="M75.6861 45.9723C81.2746 45.7728 86.8714 45.8476 92.46 45.6897C100.843 56.3805 109.184 67.113 117.542 77.837C106.298 88.8937 95.0297 99.9254 83.7861 110.982C71.7941 110.999 59.8104 110.957 47.8266 110.999C42.6955 104.464 37.764 97.7805 32.6495 91.238C31.9675 90.2487 31.1775 89.5172 31.269 88.2203C31.2191 81.6861 31.2773 75.1519 31.2607 68.626C38.87 78.4938 46.4212 88.4032 53.9807 98.3043C62.1472 98.3292 70.3138 98.2461 78.4803 98.3458C85.9733 91.2879 93.3082 84.0637 100.718 76.9309C95.9861 70.7209 91.1793 64.5691 86.3974 58.3923C83.9025 58.6916 80.8172 57.827 79.0625 59.9137C75.0541 63.5133 71.0456 67.0963 67.0205 70.671C64.2429 67.5369 61.4487 64.4278 58.6461 61.3269C64.3178 56.1976 69.9229 50.9852 75.6861 45.9723Z" fill="white"/>
<g clip-path="url(#clip0_47_3)">
<path d="M164 32H568V106H164V32Z" fill="#F7F7F7"/>
<path d="M190.738 32.8432C197.164 33.0153 203.521 34.7191 207.811 39.8044C210.757 43.1172 211.705 47.0925 212.385 51.3518C208.13 51.3691 203.875 51.3604 199.619 51.3604C199.077 49.4502 198.827 47.4281 197.423 45.9309C195.338 43.5818 191.936 43.1602 188.972 43.2204C186.655 43.4011 183.787 43.9691 182.339 45.9825C180.729 48.1767 181.202 51.3777 183.408 52.9867C186.75 55.4132 191.703 56.0328 195.648 57.0309C201.626 58.4937 207.897 60.0253 211.498 65.4893C215.202 71.8051 213.919 80.8916 208.302 85.7274C203.203 90.3481 195.691 91.4839 189.05 91.2086C182.977 91.0021 176.706 89.2467 172.58 84.5314C169.582 81.1584 168.488 77.0539 167.945 72.6742C172.175 72.6484 176.404 72.657 180.625 72.6656C181.22 74.7823 181.444 76.7356 183.08 78.3532C185.983 81.4251 191.1 81.4423 194.968 80.8056C197.888 80.2463 200.851 78.3188 200.834 75.0232C200.627 72.046 198.163 70.7898 195.657 69.9121C190.127 68.1739 184.424 67.563 179.014 65.1795C175.129 63.493 171.822 60.8256 170.228 56.8072C167.98 50.8528 168.789 43.4786 173.398 38.8235C177.826 34.2028 184.562 32.8002 190.738 32.8432Z" fill="#111111"/>
<path d="M390.8 34.4265C396.33 36.1991 400.568 39.8302 404.152 44.2874C401.051 46.9721 397.889 49.5965 394.797 52.2898C392.368 49.7944 390.223 47.4281 386.924 46.0686C380.747 43.3839 373.176 44.6919 368.309 49.3384C361.555 55.6026 361.228 67.3737 367.37 74.1542C372.495 79.9021 381.962 81.1412 388.569 77.3637C391.593 75.6428 393.203 72.9151 394.711 69.8949C389.663 69.826 384.615 69.8777 379.567 69.8605C379.567 66.1346 379.567 62.4002 379.567 58.6744C389.336 58.6744 399.113 58.6658 408.881 58.6744C409.217 67.5974 407.305 76.2451 400.973 82.8449C393.272 91.1312 381.04 93.1016 370.488 89.8921C361.977 87.3537 354.862 80.84 351.847 72.4677C347.695 61.2214 350.624 47.8584 359.85 39.9937C368.128 32.7658 380.523 31.1051 390.8 34.4265Z" fill="#111111"/>
<path d="M457.525 33.936C461.332 33.936 465.131 33.936 468.938 33.936C468.938 37.4467 468.938 40.966 468.938 44.4767C465.131 44.4767 461.332 44.4767 457.525 44.4767C457.525 40.966 457.516 37.4553 457.525 33.936Z" fill="#111111"/>
<path d="M506.409 33.936C510.217 33.936 514.016 33.936 517.823 33.936C517.823 52.7286 517.823 71.5125 517.823 90.2965C514.016 90.2965 510.208 90.2965 506.401 90.2965C506.409 89.2811 506.427 88.2658 506.444 87.2504C502.576 89.5307 498.45 90.8386 493.928 90.7611C485.641 90.8128 477.845 85.5295 474.606 77.9488C471.591 71.1339 472.47 63.0714 476.656 56.9535C480.826 50.8184 488.242 47.0839 495.685 47.7379C499.596 47.9272 503.11 49.3039 506.427 51.3002C506.392 45.5093 506.418 39.727 506.409 33.936Z" fill="#111111"/>
<path d="M295.063 50.7926C299.31 54.2431 300.826 59.3112 300.921 64.6117C301.033 73.1733 300.929 81.7349 300.964 90.2966C297.156 90.2966 293.358 90.2966 289.55 90.2966C289.533 82.3201 289.567 74.3349 289.55 66.3584C289.507 63.4845 288.594 60.5589 286.027 58.9584C282.831 57.117 278.429 57.6505 275.578 59.9307C273.149 62.0303 272.503 65.0247 272.529 68.1052C272.537 75.5052 272.546 82.8966 272.537 90.2966C268.73 90.2966 264.931 90.2966 261.124 90.2966C261.124 76.2452 261.115 62.1938 261.124 48.1424C264.862 48.1338 268.601 48.1338 272.339 48.1338C272.322 49.4761 272.305 50.8184 272.279 52.1607C278.447 46.4301 288.344 45.5782 295.063 50.7926Z" fill="#111111"/>
<path d="M337.591 49.6223C341.553 51.5153 344.448 54.6044 346.808 58.2355C343.836 60.0941 340.864 61.9441 337.901 63.7941C336.385 61.7979 335.058 59.9306 332.715 58.812C328.219 56.8072 322.447 57.4267 319.071 61.2385C315.47 65.4548 315.349 72.6741 318.803 76.9937C321.913 80.9088 327.4 81.7176 331.923 80.1085C334.602 79.0588 336.161 77.0109 337.918 74.8597C340.873 76.7097 343.801 78.5855 346.722 80.4699C344.267 84.0409 341.355 87.1299 337.367 88.9972C330.674 92.0518 322.473 91.9313 315.944 88.4895C309.698 85.1337 305.46 78.6458 304.9 71.5727C304.203 64.6976 306.563 57.7192 311.688 53.0125C318.528 46.6967 329.338 45.5695 337.591 49.6223Z" fill="#111111"/>
<path d="M559.575 53.2621C564.658 58.5023 565.976 65.6012 565.218 72.6656C554.441 72.6656 543.657 72.6053 532.88 72.7C534.017 76.1505 535.835 79.076 539.315 80.5388C545.276 82.9051 551.582 80.8916 555.518 75.9612C558.318 77.7509 561.16 79.4719 563.977 81.2272C556.647 92.3874 539.41 94.4439 529.211 86.2265C520.261 78.7921 519.33 64.1126 526.584 55.2153C534.198 45.4491 550.892 44.4251 559.575 53.2621Z" fill="#111111"/>
<path d="M215.995 48.151C220.353 48.1252 224.721 48.1252 229.079 48.1424C231.913 56.79 234.928 65.3689 237.625 74.051C240.596 65.4549 243.284 56.7556 246.221 48.1424C250.158 48.1338 254.095 48.1338 258.031 48.1338C253.354 61.6172 248.676 75.1093 243.965 88.5842C242.052 93.8761 239.856 98.8324 235.015 102.102C230.501 104.993 225.556 104.735 220.422 104.718C220.422 101.293 220.422 97.86 220.422 94.4268C222.326 94.3752 224.333 94.5128 226.211 94.1342C228.606 93.5749 230.337 91.527 231.517 89.4877C231.5 88.3003 230.888 87.087 230.518 85.9684C225.625 73.3798 220.862 60.7482 215.995 48.151Z" fill="#111111"/>
<path d="M413.162 48.1337C416.969 48.1337 420.768 48.1337 424.576 48.1337C424.593 56.2565 424.55 64.3793 424.576 72.4934C424.558 75.5309 426.023 78.4651 428.865 79.7472C432.69 81.296 438.048 80.1774 440.158 76.3741C441.58 74.0595 441.571 71.633 441.606 68.9999C441.571 62.0474 441.588 55.0948 441.588 48.1337C445.396 48.1337 449.195 48.1337 453.002 48.1337C453.002 62.1937 453.002 76.2451 453.002 90.2965C449.195 90.2965 445.379 90.2965 441.571 90.2965C441.588 88.9627 441.614 87.629 441.64 86.2953C435.662 91.6732 426.471 92.5509 419.735 88.0765C415.229 84.8497 413.222 79.6181 413.179 74.1972C413.128 65.5151 413.179 56.8244 413.162 48.1337Z" fill="#111111"/>
<path d="M457.524 48.1423C461.332 48.1337 465.131 48.1337 468.938 48.1337C468.938 62.1851 468.938 76.2451 468.938 90.2965C465.131 90.2965 461.332 90.2965 457.524 90.2965C457.524 76.2451 457.524 62.1937 457.524 48.1423Z" fill="#111111"/>
<path d="M550.091 58.4594C552.21 59.9049 553.02 61.9787 554.062 64.2073C547.145 64.3105 540.211 64.2761 533.294 64.2331C534.345 62.1594 535.146 60.2061 537.084 58.7777C540.478 56.0673 546.577 55.9038 550.091 58.4594Z" fill="#F7F7F7"/>
<path d="M492.567 58.3216C498.553 56.9019 504.945 60.7395 506.28 66.7972C507.71 72.6398 504.092 78.8437 498.192 80.2549C492.498 81.8209 486.442 78.7663 484.659 73.0958C482.488 66.8747 486.097 59.8447 492.567 58.3216Z" fill="#F7F7F7"/>
</g>
<defs>
<clipPath id="clip0_47_3">
<rect width="404" height="74" fill="white" transform="translate(164 32)"/>
</clipPath>
</defs>
</svg>
