<svg width="1184" height="666" viewBox="0 0 1184 666" fill="none" xmlns="http://www.w3.org/2000/svg">
<rect width="1184" height="666" fill="black"/>
<path d="M163.707 236.881C223.87 236.83 284.477 236.868 344.679 236.855C353.939 236.602 361.668 243.965 361.63 253.276C361.706 304.195 361.617 355.442 361.68 406.373C361.63 410.814 362.06 415.115 360.023 419.214C358.151 422.933 354.71 426.222 350.725 427.525C347.12 428.208 343.262 427.804 339.606 427.879C282.681 427.879 225.755 427.879 168.83 427.879C164.402 427.664 159.127 428.803 155.383 426.21C150.171 423.211 147.211 417.405 147.338 411.446C147.325 360.895 147.363 310.166 147.325 259.626C147.388 255.06 146.857 250.164 149.058 245.976C151.892 240.524 157.483 236.83 163.707 236.881Z" fill="black"/>
<path d="M239.86 268.292L240.493 267.875C258.658 267.811 276.837 267.849 295.002 267.862C303.199 278.64 311.472 289.368 319.695 300.146C319.682 310.672 319.682 321.197 319.695 331.722C308.285 316.883 296.925 302.006 285.54 287.142C273.054 287.129 260.569 287.18 248.083 287.116C236.85 297.945 225.629 308.799 214.446 319.679C221.644 329.116 228.931 338.478 236.179 347.877C239.177 347.763 242.175 347.649 245.173 347.51C252.004 341.4 258.873 335.315 265.704 329.192C269.968 333.923 274.18 338.705 278.443 343.424C269.854 351.002 261.441 358.946 252.662 366.271C244.237 367.119 235.471 366.752 226.97 367.169C214.219 350.837 201.467 334.493 188.729 318.123C205.819 301.576 222.72 284.776 239.86 268.292Z" fill="white"/>
<path d="M256.128 297.958C264.629 297.654 273.143 297.768 281.643 297.528C294.395 313.796 307.083 330.128 319.796 346.448C302.693 363.273 285.552 380.06 268.449 396.886C250.208 396.911 231.979 396.848 213.75 396.911C205.945 386.967 198.444 376.796 190.664 366.84C189.627 365.335 188.425 364.222 188.564 362.248C188.488 352.305 188.577 342.361 188.552 332.431C200.126 347.447 211.613 362.527 223.112 377.593C235.534 377.631 247.956 377.505 260.379 377.657C271.776 366.916 282.934 355.923 294.205 345.069C287.007 335.619 279.695 326.257 272.422 316.858C268.627 317.313 263.933 315.998 261.264 319.173C255.167 324.651 249.069 330.103 242.947 335.543C238.722 330.773 234.471 326.042 230.208 321.323C238.836 313.518 247.362 305.586 256.128 297.958Z" fill="white"/>
<g clip-path="url(#clip0_59_2)">
<path d="M431.137 277.979C440.912 278.241 450.582 280.833 457.107 288.572C461.588 293.613 463.03 299.663 464.065 306.144C457.592 306.17 451.119 306.157 444.646 306.157C443.821 303.25 443.441 300.173 441.305 297.895C438.134 294.32 432.958 293.679 428.451 293.77C424.926 294.045 420.563 294.909 418.361 297.973C415.911 301.312 416.632 306.183 419.986 308.632C425.07 312.325 432.604 313.267 438.606 314.786C447.699 317.012 457.238 319.343 462.715 327.658C468.35 337.269 466.397 351.096 457.854 358.455C450.097 365.486 438.671 367.215 428.569 366.796C419.331 366.481 409.792 363.81 403.516 356.635C398.956 351.502 397.292 345.256 396.466 338.591C402.9 338.552 409.333 338.565 415.754 338.578C416.658 341.799 416.999 344.772 419.488 347.233C423.904 351.908 431.687 351.934 437.57 350.965C442.012 350.114 446.52 347.181 446.494 342.166C446.179 337.635 442.432 335.724 438.619 334.388C430.207 331.743 421.532 330.813 413.304 327.186C407.394 324.62 402.362 320.561 399.938 314.446C396.518 305.385 397.75 294.163 404.76 287.079C411.495 280.048 421.742 277.913 431.137 277.979Z" fill="white"/>
<path d="M735.456 280.388C743.868 283.086 750.315 288.611 755.766 295.394C751.049 299.479 746.24 303.473 741.536 307.571C737.841 303.774 734.578 300.173 729.56 298.104C720.165 294.019 708.647 296.009 701.244 303.08C690.971 312.613 690.473 330.525 699.816 340.843C707.612 349.59 722.013 351.476 732.063 345.727C736.662 343.109 739.112 338.958 741.405 334.362C733.727 334.257 726.048 334.336 718.37 334.309C718.37 328.64 718.37 322.957 718.37 317.287C733.229 317.287 748.101 317.274 762.96 317.287C763.471 330.866 760.562 344.025 750.931 354.068C739.217 366.678 720.61 369.676 704.559 364.792C691.613 360.93 680.79 351.017 676.204 338.277C669.888 321.163 674.343 300.828 688.377 288.86C700.969 277.861 719.824 275.334 735.456 280.388Z" fill="white"/>
<path d="M836.953 279.642C842.744 279.642 848.523 279.642 854.314 279.642C854.314 284.984 854.314 290.34 854.314 295.682C848.523 295.682 842.744 295.682 836.953 295.682C836.953 290.34 836.94 284.997 836.953 279.642Z" fill="white"/>
<path d="M911.313 279.642C917.104 279.642 922.883 279.642 928.674 279.642C928.674 308.239 928.674 336.823 928.674 365.408C922.883 365.408 917.091 365.408 911.3 365.408C911.313 363.863 911.339 362.318 911.365 360.772C905.482 364.242 899.206 366.233 892.327 366.115C879.721 366.193 867.863 358.154 862.936 346.618C858.35 336.247 859.687 323.978 866.055 314.668C872.397 305.332 883.678 299.65 895 300.645C900.948 300.933 906.294 303.028 911.339 306.066C911.287 297.253 911.326 288.454 911.313 279.642Z" fill="white"/>
<path d="M589.828 305.293C596.288 310.544 598.594 318.256 598.738 326.322C598.909 339.351 598.752 352.379 598.804 365.408C593.012 365.408 587.234 365.408 581.442 365.408C581.416 353.27 581.469 341.118 581.442 328.98C581.377 324.607 579.988 320.155 576.083 317.719C571.222 314.917 564.526 315.729 560.189 319.199C556.494 322.394 555.511 326.951 555.551 331.638C555.564 342.899 555.577 354.147 555.564 365.408C549.772 365.408 543.994 365.408 538.202 365.408C538.202 344.025 538.189 322.643 538.202 301.26C543.889 301.247 549.576 301.247 555.262 301.247C555.236 303.29 555.21 305.332 555.171 307.375C564.552 298.654 579.608 297.358 589.828 305.293Z" fill="white"/>
<path d="M654.518 303.512C660.546 306.393 664.948 311.094 668.539 316.619C664.018 319.448 659.498 322.263 654.99 325.078C652.684 322.04 650.666 319.199 647.102 317.497C640.262 314.446 631.483 315.389 626.347 321.189C620.87 327.605 620.686 338.591 625.941 345.164C630.671 351.122 639.017 352.353 645.897 349.904C649.972 348.307 652.343 345.191 655.016 341.917C659.511 344.732 663.966 347.587 668.408 350.454C664.673 355.888 660.244 360.589 654.178 363.431C643.997 368.079 631.522 367.896 621.59 362.658C612.091 357.551 605.644 347.678 604.792 336.915C603.731 326.453 607.321 315.834 615.117 308.671C625.521 299.06 641.966 297.345 654.518 303.512Z" fill="white"/>
<path d="M992.185 309.051C999.916 317.025 1001.92 327.828 1000.77 338.578C984.376 338.578 967.971 338.486 951.579 338.63C953.308 343.881 956.073 348.333 961.367 350.559C970.434 354.16 980.025 351.096 986.014 343.593C990.272 346.317 994.596 348.935 998.881 351.607C987.73 368.59 961.511 371.719 945.997 359.214C932.383 347.901 930.967 325.563 942 312.023C953.583 297.162 978.977 295.603 992.185 309.051Z" fill="white"/>
<path d="M469.555 301.273C476.185 301.234 482.829 301.234 489.459 301.26C493.77 314.42 498.356 327.474 502.457 340.686C506.978 327.605 511.066 314.367 515.534 301.26C521.522 301.247 527.51 301.247 533.498 301.247C526.383 321.765 519.268 342.297 512.101 362.802C509.192 370.855 505.851 378.397 498.487 383.373C491.621 387.772 484.1 387.38 476.29 387.353C476.29 382.142 476.29 376.917 476.29 371.693C479.186 371.614 482.239 371.824 485.095 371.248C488.738 370.397 491.372 367.28 493.167 364.177C493.141 362.37 492.21 360.524 491.647 358.821C484.204 339.665 476.958 320.443 469.555 301.273Z" fill="white"/>
<path d="M769.472 301.247C775.264 301.247 781.042 301.247 786.834 301.247C786.86 313.608 786.794 325.969 786.834 338.316C786.807 342.938 789.035 347.403 793.359 349.354C799.177 351.711 807.327 350.009 810.537 344.222C812.699 340.699 812.686 337.007 812.738 333C812.686 322.42 812.712 311.84 812.712 301.247C818.504 301.247 824.282 301.247 830.074 301.247C830.074 322.643 830.074 344.025 830.074 365.408C824.282 365.408 818.478 365.408 812.686 365.408C812.712 363.378 812.751 361.349 812.791 359.319C803.697 367.503 789.716 368.838 779.47 362.03C772.617 357.119 769.564 349.158 769.498 340.909C769.42 327.697 769.498 314.472 769.472 301.247Z" fill="white"/>
<path d="M836.953 301.26C842.744 301.247 848.523 301.247 854.314 301.247C854.314 322.63 854.314 344.025 854.314 365.408C848.523 365.408 842.744 365.408 836.953 365.408C836.953 344.025 836.953 322.643 836.953 301.26Z" fill="white"/>
<path d="M977.759 316.96C980.982 319.16 982.214 322.315 983.799 325.707C973.278 325.864 962.73 325.811 952.208 325.746C953.806 322.59 955.025 319.618 957.973 317.444C963.136 313.32 972.413 313.071 977.759 316.96Z" fill="black"/>
<path d="M890.256 316.75C899.363 314.59 909.085 320.43 911.116 329.648C913.292 338.539 907.788 347.98 898.813 350.127C890.151 352.51 880.94 347.862 878.228 339.233C874.926 329.766 880.416 319.068 890.256 316.75Z" fill="black"/>
</g>
<defs>
<clipPath id="clip0_59_2">
<rect width="614.535" height="112.609" fill="white" transform="translate(390.465 276.696)"/>
</clipPath>
</defs>
</svg>
